<?xml version="1.0" encoding="UTF-8"?>
<!DOCTYPE svg PUBLIC "-//W3C//DTD SVG 1.1//EN" "http://www.w3.org/Graphics/SVG/1.1/DTD/svg11.dtd">
<svg xmlns="http://www.w3.org/2000/svg" version="1.1" width="700px" height="700px" style="shape-rendering:geometricPrecision; text-rendering:geometricPrecision; image-rendering:optimizeQuality; fill-rule:evenodd; clip-rule:evenodd" xmlns:xlink="http://www.w3.org/1999/xlink">
<g><path style="opacity:0.564" fill="#a53f36" d="M 131.5,33.5 C 139.678,33.6535 142.011,37.3201 138.5,44.5C 131.905,47.3064 128.405,45.3064 128,38.5C 129.412,36.9354 130.579,35.2687 131.5,33.5 Z"/></g>
<g><path style="opacity:0.665" fill="#aa495b" d="M 321.5,45.5 C 331.552,43.7114 334.885,47.5447 331.5,57C 321.448,61.7177 317.281,58.5511 319,47.5C 319.995,46.9341 320.828,46.2674 321.5,45.5 Z"/></g>
<g><path style="opacity:0.637" fill="#b25993" d="M 528.5,65.5 C 538.322,65.4718 541.322,69.9718 537.5,79C 528.273,82.1563 524.106,78.9896 525,69.5C 526.72,68.6159 527.886,67.2825 528.5,65.5 Z"/></g>
<g><path style="opacity:0.752" fill="#aa4755" d="M 297.5,78.5 C 296.567,82.9645 295.234,87.2979 293.5,91.5C 283.618,93.7915 279.118,89.7915 280,79.5C 283.23,73.5246 288.063,72.0246 294.5,75C 295.636,76.1451 296.636,77.3117 297.5,78.5 Z"/></g>
<g><path style="opacity:0.826" fill="#b35b9a" d="M 566.5,77.5 C 563.638,84.7519 560.971,92.0853 558.5,99.5C 551.769,100.552 547.269,97.8858 545,91.5C 544.18,78.3245 550.347,72.8245 563.5,75C 565.119,75.2355 566.119,76.0689 566.5,77.5 Z"/></g>
<g><path style="opacity:0.57" fill="#ad4f6f" d="M 397.5,77.5 C 396.301,81.0986 395.301,84.7653 394.5,88.5C 389.91,85.2815 389.577,81.7815 393.5,78C 394.793,77.51 396.127,77.3433 397.5,77.5 Z"/></g>
<g><path style="opacity:0.61" fill="#ae4f71" d="M 397.5,77.5 C 399.144,77.2865 400.644,77.6198 402,78.5C 404.536,85.7472 402.036,89.0805 394.5,88.5C 395.301,84.7653 396.301,81.0986 397.5,77.5 Z"/></g>
<g><path style="opacity:0.741" fill="#b45c9d" d="M 566.5,77.5 C 571.342,81.6032 572.675,86.7698 570.5,93C 568.025,97.8874 564.025,100.054 558.5,99.5C 560.971,92.0853 563.638,84.7519 566.5,77.5 Z"/></g>
<g><path style="opacity:0.24" fill="#aa4858" d="M 297.5,78.5 C 299.366,83.7543 298.032,88.0877 293.5,91.5C 295.234,87.2979 296.567,82.9645 297.5,78.5 Z"/></g>
<g><path style="opacity:0.745" fill="#af527b" d="M 443.5,78.5 C 440.437,86.0233 437.77,93.69 435.5,101.5C 430.715,99.5823 428.048,95.9156 427.5,90.5C 428.81,81.195 434.143,77.195 443.5,78.5 Z"/></g>
<g><path style="opacity:0.811" fill="#af537e" d="M 443.5,78.5 C 446.87,79.4323 449.37,81.4323 451,84.5C 453.979,98.3421 448.812,104.009 435.5,101.5C 437.77,93.69 440.437,86.0233 443.5,78.5 Z"/></g>
<g><path style="opacity:0.713" fill="#ac4d68" d="M 370.5,91.5 C 368.774,95.0087 367.441,98.6754 366.5,102.5C 357.432,103.405 354.266,99.4052 357,90.5C 358.924,88.2435 361.424,87.2435 364.5,87.5C 367.981,86.8917 369.981,88.2251 370.5,91.5 Z"/></g>
<g><path style="opacity:0.672" fill="#a84349" d="M 230.5,88.5 C 228.563,95.3104 226.23,101.977 223.5,108.5C 222.25,108.423 221.417,107.756 221,106.5C 217.748,96.8621 220.914,90.8621 230.5,88.5 Z"/></g>
<g><path style="opacity:0.867" fill="#a74549" d="M 230.5,88.5 C 232.167,88.5 233.833,88.5 235.5,88.5C 232.5,96.5 229.5,104.5 226.5,112.5C 224.738,111.738 223.738,110.404 223.5,108.5C 226.23,101.977 228.563,95.3104 230.5,88.5 Z"/></g>
<g><path style="opacity:0.882" fill="#a8444b" d="M 235.5,88.5 C 238.089,88.461 240.089,89.461 241.5,91.5C 238.638,98.7519 235.971,106.085 233.5,113.5C 231.139,113.326 228.806,112.993 226.5,112.5C 229.5,104.5 232.5,96.5 235.5,88.5 Z"/></g>
<g><path style="opacity:0.733" fill="#a9454c" d="M 241.5,91.5 C 242.79,92.0577 243.623,93.0577 244,94.5C 247.637,104.993 244.137,111.326 233.5,113.5C 235.971,106.085 238.638,98.7519 241.5,91.5 Z"/></g>
<g><path style="opacity:0.455" fill="#ac4e6a" d="M 370.5,91.5 C 371.732,94.1836 371.732,97.0169 370.5,100C 369.644,101.595 368.311,102.428 366.5,102.5C 367.441,98.6754 368.774,95.0087 370.5,91.5 Z"/></g>
<g><path style="opacity:0.781" fill="#ac4c66" d="M 333.5,115.5 C 335.935,111.201 337.602,106.534 338.5,101.5C 351.234,98.0551 356.734,103.055 355,116.5C 347.359,124.622 340.193,124.289 333.5,115.5 Z"/></g>
<g><path style="opacity:0.347" fill="#ab4c62" d="M 338.5,101.5 C 337.602,106.534 335.935,111.201 333.5,115.5C 332.78,109.838 334.446,105.172 338.5,101.5 Z"/></g>
<g><path style="opacity:0.764" fill="#ad4e6c" d="M 359.5,119.5 C 361.02,117.11 362.02,114.443 362.5,111.5C 374.086,108.207 379.253,112.541 378,124.5C 372.841,131.418 367.008,132.085 360.5,126.5C 359.833,124.5 359.167,122.5 358.5,120.5C 358.624,119.893 358.957,119.56 359.5,119.5 Z"/></g>
<g><path style="opacity:0.263" fill="#ac4e69" d="M 362.5,111.5 C 362.02,114.443 361.02,117.11 359.5,119.5C 359.018,116.169 360.018,113.503 362.5,111.5 Z"/></g>
<g><path style="opacity:0.815" fill="#b25993" d="M 525.5,112.5 C 521.971,121.753 518.638,131.086 515.5,140.5C 507.975,138.787 504.309,133.954 504.5,126C 506.004,112.995 513.004,108.495 525.5,112.5 Z"/></g>
<g><path style="opacity:0.8" fill="#b35a97" d="M 525.5,112.5 C 534.081,117.412 536.415,124.579 532.5,134C 528.398,139.904 522.731,142.071 515.5,140.5C 518.638,131.086 521.971,121.753 525.5,112.5 Z"/></g>
<g><path style="opacity:0.668" fill="#ae5072" d="M 387.5,113.5 C 397.82,112.665 401.153,117.165 397.5,127C 393.208,130.35 389.041,130.184 385,126.5C 382.467,121.351 383.3,117.018 387.5,113.5 Z"/></g>
<g><path style="opacity:0.571" fill="#b05582" d="M 455.5,116.5 C 453.675,121.986 451.675,127.319 449.5,132.5C 448.411,128.922 448.245,125.255 449,121.5C 450.753,119.242 452.919,117.575 455.5,116.5 Z"/></g>
<g><path style="opacity:0.78" fill="#b05585" d="M 455.5,116.5 C 463.106,115.567 467.106,118.901 467.5,126.5C 467.356,133.055 464.023,136.388 457.5,136.5C 454.234,136.2 451.567,134.867 449.5,132.5C 451.675,127.319 453.675,121.986 455.5,116.5 Z"/></g>
<g><path style="opacity:0.763" fill="#a74345" d="M 188.5,132.5 C 189.837,128.155 191.171,123.822 192.5,119.5C 197.045,117.529 201.212,118.529 205,122.5C 207.5,134 203,138.5 191.5,136C 189.937,135.241 188.937,134.074 188.5,132.5 Z"/></g>
<g><path style="opacity:0.81" fill="#b1568a" d="M 486.5,117.5 C 484.23,125.31 481.563,132.977 478.5,140.5C 474.486,138.485 472.486,135.152 472.5,130.5C 474.4,127.482 475.733,124.149 476.5,120.5C 479.239,117.976 482.572,116.976 486.5,117.5 Z"/></g>
<g><path style="opacity:0.87" fill="#b1588d" d="M 486.5,117.5 C 492.259,117.924 495.926,120.924 497.5,126.5C 495.658,130.68 493.992,135.013 492.5,139.5C 492.389,140.117 492.056,140.617 491.5,141C 486.98,141.814 482.646,141.647 478.5,140.5C 481.563,132.977 484.23,125.31 486.5,117.5 Z"/></g>
<g><path style="opacity:0.493" fill="#a64343" d="M 192.5,119.5 C 191.171,123.822 189.837,128.155 188.5,132.5C 187.766,131.122 187.099,129.622 186.5,128C 187.249,126.266 187.749,124.433 188,122.5C 188.918,120.624 190.418,119.624 192.5,119.5 Z"/></g>
<g><path style="opacity:0.818" fill="#a74549" d="M 223.5,120.5 C 220.632,128.438 217.965,136.438 215.5,144.5C 214.11,143.101 213.11,141.434 212.5,139.5C 214.702,133.562 216.702,127.562 218.5,121.5C 220.042,120.699 221.708,120.366 223.5,120.5 Z"/></g>
<g><path style="opacity:0.905" fill="#a8444b" d="M 223.5,120.5 C 225.833,120.5 228.167,120.5 230.5,120.5C 227.538,129.729 224.204,138.729 220.5,147.5C 218.566,146.89 216.899,145.89 215.5,144.5C 217.965,136.438 220.632,128.438 223.5,120.5 Z"/></g>
<g><path style="opacity:0.806" fill="#a9454d" d="M 230.5,120.5 C 233.664,121.163 236.164,122.83 238,125.5C 243.117,142.182 237.284,149.516 220.5,147.5C 224.204,138.729 227.538,129.729 230.5,120.5 Z"/></g>
<g><path style="opacity:0.204" fill="#b05788" d="M 476.5,120.5 C 475.733,124.149 474.4,127.482 472.5,130.5C 472.099,126.349 473.433,123.015 476.5,120.5 Z"/></g>
<g><path style="opacity:0.453" fill="#a84349" d="M 218.5,121.5 C 216.702,127.562 214.702,133.562 212.5,139.5C 209.729,131.83 211.729,125.83 218.5,121.5 Z"/></g>
<g><path style="opacity:0.341" fill="#b1598f" d="M 497.5,126.5 C 497.965,130.792 497.132,134.792 495,138.5C 494.329,139.252 493.496,139.586 492.5,139.5C 493.992,135.013 495.658,130.68 497.5,126.5 Z"/></g>
<g><path style="opacity:0.786" fill="#a53f36" d="M 88.5,133.5 C 102.448,132.701 107.282,139.034 103,152.5C 94.5414,159.619 87.208,158.619 81,149.5C 79.3577,142.037 81.8577,136.704 88.5,133.5 Z"/></g>
<g><path style="opacity:0.744" fill="#ae5075" d="M 400.5,134.5 C 396.872,145.061 392.872,155.394 388.5,165.5C 381.974,154.425 383.641,144.758 393.5,136.5C 395.729,135.423 398.063,134.756 400.5,134.5 Z"/></g>
<g><path style="opacity:0.885" fill="#ad5176" d="M 400.5,134.5 C 400.833,134.5 401.167,134.5 401.5,134.5C 397.632,145.438 393.965,156.438 390.5,167.5C 389.5,167.167 388.833,166.5 388.5,165.5C 392.872,155.394 396.872,145.061 400.5,134.5 Z"/></g>
<g><path style="opacity:0.914" fill="#af5279" d="M 401.5,134.5 C 409.593,133.417 415.926,136.084 420.5,142.5C 416.657,152.018 412.991,161.685 409.5,171.5C 402.463,173.616 396.129,172.282 390.5,167.5C 393.965,156.438 397.632,145.438 401.5,134.5 Z"/></g>
<g><path style="opacity:0.881" fill="#ad4e6d" d="M 373.5,143.5 C 371.56,150.322 369.226,156.989 366.5,163.5C 357.357,166.463 350.69,163.796 346.5,155.5C 349.401,149.473 351.734,143.139 353.5,136.5C 360.681,134.174 367.015,135.507 372.5,140.5C 373.386,141.325 373.719,142.325 373.5,143.5 Z"/></g>
<g><path style="opacity:0.529" fill="#ad4e69" d="M 353.5,136.5 C 351.734,143.139 349.401,149.473 346.5,155.5C 343.927,147.208 346.26,140.875 353.5,136.5 Z"/></g>
<g><path style="opacity:0.75" fill="#ab4b62" d="M 325.5,139.5 C 322.437,147.023 319.77,154.69 317.5,162.5C 310.568,154.753 310.902,147.253 318.5,140C 320.81,139.503 323.143,139.337 325.5,139.5 Z"/></g>
<g><path style="opacity:0.814" fill="#ac4c65" d="M 325.5,139.5 C 333.094,139.761 337.094,143.761 337.5,151.5C 335.518,163.353 328.852,167.02 317.5,162.5C 319.77,154.69 322.437,147.023 325.5,139.5 Z"/></g>
<g><path style="opacity:0.929" fill="#b05586" d="M 468.5,144.5 C 461.929,160.875 455.929,177.542 450.5,194.5C 442.27,191.6 436.27,186.267 432.5,178.5C 437.206,167.393 441.539,156.06 445.5,144.5C 453.232,140.556 460.898,140.556 468.5,144.5 Z"/></g>
<g><path style="opacity:0.738" fill="#af537d" d="M 420.5,142.5 C 424.471,152.499 422.804,161.332 415.5,169C 413.58,170.122 411.58,170.956 409.5,171.5C 412.991,161.685 416.657,152.018 420.5,142.5 Z"/></g>
<g><path style="opacity:0.536" fill="#ae5071" d="M 373.5,143.5 C 376.367,150.611 375.034,156.944 369.5,162.5C 368.583,163.127 367.583,163.461 366.5,163.5C 369.226,156.989 371.56,150.322 373.5,143.5 Z"/></g>
<g><path style="opacity:0.709" fill="#b05482" d="M 445.5,144.5 C 441.539,156.06 437.206,167.393 432.5,178.5C 428.936,168.393 430.269,158.893 436.5,150C 438.86,147.149 441.86,145.316 445.5,144.5 Z"/></g>
<g><path style="opacity:0.932" fill="#b1568a" d="M 468.5,144.5 C 471.42,145.431 473.753,147.097 475.5,149.5C 469.77,164.355 464.437,179.355 459.5,194.5C 456.5,194.5 453.5,194.5 450.5,194.5C 455.929,177.542 461.929,160.875 468.5,144.5 Z"/></g>
<g><path style="opacity:0.826" fill="#a84347" d="M 208.5,150.5 C 205.437,158.023 202.77,165.69 200.5,173.5C 189.062,172.879 184.562,166.879 187,155.5C 188.27,151.23 191.104,148.73 195.5,148C 200.347,146.844 204.68,147.677 208.5,150.5 Z"/></g>
<g><path style="opacity:0.835" fill="#b25993" d="M 511.5,149.5 C 509.035,157.562 506.368,165.562 503.5,173.5C 490.961,170.778 487.461,163.445 493,151.5C 498.755,147.093 504.922,146.427 511.5,149.5 Z"/></g>
<g><path style="opacity:0.883" fill="#b1588d" d="M 475.5,149.5 C 481.163,154.479 483.497,160.813 482.5,168.5C 479.796,174.267 477.462,180.267 475.5,186.5C 471.284,191.236 465.951,193.903 459.5,194.5C 464.437,179.355 469.77,164.355 475.5,149.5 Z"/></g>
<g><path style="opacity:0.743" fill="#b35a96" d="M 511.5,149.5 C 516.123,153.432 517.623,158.432 516,164.5C 514.229,170.764 510.063,173.764 503.5,173.5C 506.368,165.562 509.035,157.562 511.5,149.5 Z"/></g>
<g><path style="opacity:0.845" fill="#a74549" d="M 208.5,150.5 C 210.25,151.659 211.25,153.326 211.5,155.5C 208.99,161.015 206.656,166.681 204.5,172.5C 203.292,173.234 201.959,173.567 200.5,173.5C 202.77,165.69 205.437,158.023 208.5,150.5 Z"/></g>
<g><path style="opacity:0.82" fill="#a94650" d="M 244.5,152.5 C 240.833,162.5 237.167,172.5 233.5,182.5C 225.561,177.112 223.394,169.779 227,160.5C 230.979,153.929 236.812,151.263 244.5,152.5 Z"/></g>
<g><path style="opacity:0.858" fill="#a94753" d="M 244.5,152.5 C 249.866,152.116 254.032,154.116 257,158.5C 263.171,177.646 256.338,186.479 236.5,185C 235.429,184.148 234.429,183.315 233.5,182.5C 237.167,172.5 240.833,162.5 244.5,152.5 Z"/></g>
<g><path style="opacity:0.552" fill="#a7454a" d="M 211.5,155.5 C 213.554,161.57 212.221,166.903 207.5,171.5C 206.583,172.127 205.583,172.461 204.5,172.5C 206.656,166.681 208.99,161.015 211.5,155.5 Z"/></g>
<g><path style="opacity:0.363" fill="#b1598f" d="M 482.5,168.5 C 483.285,175.828 480.951,181.828 475.5,186.5C 477.462,180.267 479.796,174.267 482.5,168.5 Z"/></g>
<g><path style="opacity:0.657" fill="#b45b9b" d="M 532.5,169.5 C 530.968,174.097 529.635,178.764 528.5,183.5C 526.83,183.249 525.33,182.582 524,181.5C 521.38,173.316 524.213,169.316 532.5,169.5 Z"/></g>
<g><path style="opacity:0.653" fill="#b45c9d" d="M 532.5,169.5 C 537.112,172.171 538.446,176.171 536.5,181.5C 534.149,183.229 531.482,183.896 528.5,183.5C 529.635,178.764 530.968,174.097 532.5,169.5 Z"/></g>
<g><path style="opacity:0.658" fill="#a84347" d="M 181.5,178.5 C 192,176.838 195.334,181.005 191.5,191C 181.961,194.66 177.794,191.493 179,181.5C 180.417,180.922 181.25,179.922 181.5,178.5 Z"/></g>
<g><path style="opacity:0.808" fill="#a8454e" d="M 203.5,195.5 C 204.038,193.883 204.371,192.216 204.5,190.5C 204.755,185.829 207.089,182.662 211.5,181C 224.531,179.504 230.031,185.337 228,198.5C 223.937,205.133 218.104,207.3 210.5,205C 206.584,203.002 204.251,199.835 203.5,195.5 Z"/></g>
<g><path style="opacity:0.927" fill="#b35b99" d="M 524.5,194.5 C 519.657,206.351 514.99,218.351 510.5,230.5C 499.388,232.278 491.388,228.278 486.5,218.5C 490.538,208.729 494.204,198.729 497.5,188.5C 506.701,184.996 515.367,186.162 523.5,192C 524.252,192.671 524.586,193.504 524.5,194.5 Z"/></g>
<g><path style="opacity:0.988" fill="#ad4e6d" d="M 357.5,187.5 C 322.538,284.728 287.204,381.728 251.5,478.5C 250.078,478.291 248.745,477.791 247.5,477C 242.599,472.935 238.266,468.435 234.5,463.5C 268.208,372.049 301.541,280.383 334.5,188.5C 342.15,187.857 349.817,187.523 357.5,187.5 Z"/></g>
<g><path style="opacity:0.99" fill="#ae5073" d="M 357.5,187.5 C 364.916,188.022 372.249,189.022 379.5,190.5C 343.449,290.935 307.116,391.269 270.5,491.5C 268.692,491.509 267.025,491.009 265.5,490C 261.681,486.964 257.681,484.298 253.5,482C 252.177,481.184 251.511,480.017 251.5,478.5C 287.204,381.728 322.538,284.728 357.5,187.5 Z"/></g>
<g><path style="opacity:0.987" fill="#ac4c67" d="M 334.5,188.5 C 301.541,280.383 268.208,372.049 234.5,463.5C 226.724,456.6 220.391,448.6 215.5,439.5C 245.68,358.45 275.347,277.117 304.5,195.5C 314.239,192.248 324.239,189.914 334.5,188.5 Z"/></g>
<g><path style="opacity:0.703" fill="#b35994" d="M 497.5,188.5 C 494.204,198.729 490.538,208.729 486.5,218.5C 485.479,212.87 485.313,207.204 486,201.5C 487.958,195.382 491.792,191.049 497.5,188.5 Z"/></g>
<g><path style="opacity:0.036" fill="#a7454b" d="M 204.5,190.5 C 204.371,192.216 204.038,193.883 203.5,195.5C 202.861,194.903 202.528,194.07 202.5,193C 202.684,191.624 203.351,190.791 204.5,190.5 Z"/></g>
<g><path style="opacity:0.991" fill="#ad5176" d="M 379.5,190.5 C 380.167,190.5 380.833,190.5 381.5,190.5C 344.833,291.167 308.167,391.833 271.5,492.5C 270.833,492.5 270.5,492.167 270.5,491.5C 307.116,391.269 343.449,290.935 379.5,190.5 Z"/></g>
<g><path style="opacity:0.991" fill="#af5279" d="M 381.5,190.5 C 388.08,191.282 394.414,192.949 400.5,195.5C 363.5,297.5 326.5,399.5 289.5,501.5C 287.213,501.276 285.047,500.609 283,499.5C 278.926,497.435 275.092,495.102 271.5,492.5C 308.167,391.833 344.833,291.167 381.5,190.5 Z"/></g>
<g><path style="opacity:0.811" fill="#b45c9d" d="M 524.5,194.5 C 526.562,196.41 528.062,198.743 529,201.5C 531.621,212.212 528.788,221.045 520.5,228C 517.392,229.759 514.059,230.592 510.5,230.5C 514.99,218.351 519.657,206.351 524.5,194.5 Z"/></g>
<g><path style="opacity:0.983" fill="#ab4b61" d="M 304.5,195.5 C 275.347,277.117 245.68,358.45 215.5,439.5C 210.295,433.269 206.295,426.269 203.5,418.5C 230.068,347.471 256.068,276.138 281.5,204.5C 282.058,203.21 283.058,202.377 284.5,202C 291.114,199.519 297.78,197.352 304.5,195.5 Z"/></g>
<g><path style="opacity:0.99" fill="#af5480" d="M 400.5,195.5 C 408.397,197.91 416.063,200.91 423.5,204.5C 386.695,306.248 349.695,407.915 312.5,509.5C 304.56,507.599 296.893,504.932 289.5,501.5C 326.5,399.5 363.5,297.5 400.5,195.5 Z"/></g>
<g><path style="opacity:0.733" fill="#a84449" d="M 193.5,202.5 C 191.776,208.278 189.776,213.945 187.5,219.5C 182.162,214.236 182.495,209.069 188.5,204C 190.025,202.991 191.692,202.491 193.5,202.5 Z"/></g>
<g><path style="opacity:0.841" fill="#a8444b" d="M 193.5,202.5 C 195.886,202.259 197.886,202.925 199.5,204.5C 197.7,210.567 195.7,216.567 193.5,222.5C 190.687,222.975 188.687,221.975 187.5,219.5C 189.776,213.945 191.776,208.278 193.5,202.5 Z"/></g>
<g><path style="opacity:0.645" fill="#a9454c" d="M 199.5,204.5 C 200.496,204.414 201.329,204.748 202,205.5C 205.903,212.088 204.736,217.588 198.5,222C 196.866,222.494 195.199,222.66 193.5,222.5C 195.7,216.567 197.7,210.567 199.5,204.5 Z"/></g>
<g><path style="opacity:0.98" fill="#ab495e" d="M 281.5,204.5 C 256.068,276.138 230.068,347.471 203.5,418.5C 201.926,416.898 201.259,414.898 201.5,412.5C 226.875,344.05 251.875,275.383 276.5,206.5C 277.93,205.463 279.597,204.796 281.5,204.5 Z"/></g>
<g><path style="opacity:0.991" fill="#b05586" d="M 423.5,204.5 C 430.332,207.412 436.666,211.079 442.5,215.5C 406.188,314.763 369.854,414.097 333.5,513.5C 326.584,511.797 319.584,510.464 312.5,509.5C 349.695,407.915 386.695,306.248 423.5,204.5 Z"/></g>
<g><path style="opacity:0.972" fill="#aa495a" d="M 276.5,206.5 C 251.875,275.383 226.875,344.05 201.5,412.5C 200.108,410.727 198.941,408.727 198,406.5C 194.159,395.464 191.659,384.13 190.5,372.5C 208.401,325.472 225.734,278.138 242.5,230.5C 252.422,220.59 263.755,212.59 276.5,206.5 Z"/></g>
<g><path style="opacity:0.461" fill="#b561ae" d="M 596.5,210.5 C 594.481,215.571 592.481,220.571 590.5,225.5C 587.844,218.496 589.844,213.496 596.5,210.5 Z"/></g>
<g><path style="opacity:0.786" fill="#b661b0" d="M 596.5,210.5 C 607.757,210.277 611.591,215.611 608,226.5C 605.694,228.888 602.861,229.888 599.5,229.5C 595.576,230.035 592.576,228.702 590.5,225.5C 592.481,220.571 594.481,215.571 596.5,210.5 Z"/></g>
<g><path style="opacity:0.684" fill="#a74242" d="M 137.5,213.5 C 149.698,211.017 153.364,215.35 148.5,226.5C 141.002,230.291 136.668,228.125 135.5,220C 135.338,217.498 136.005,215.331 137.5,213.5 Z"/></g>
<g><path style="opacity:0.99" fill="#b1568a" d="M 442.5,215.5 C 445.117,216.786 447.45,218.453 449.5,220.5C 413.833,318.5 378.167,416.5 342.5,514.5C 339.609,513.597 336.609,513.264 333.5,513.5C 369.854,414.097 406.188,314.763 442.5,215.5 Z"/></g>
<g><path style="opacity:0.693" fill="#a53d33" d="M 32.5,219.5 C 36.1064,219.211 39.6064,219.544 43,220.5C 46.6019,225.47 46.1019,229.97 41.5,234C 34.5429,236.372 30.8763,234.038 30.5,227C 30.4101,224.256 31.0768,221.756 32.5,219.5 Z"/></g>
<g><path style="opacity:0.989" fill="#b1588d" d="M 449.5,220.5 C 453.127,222.794 456.461,225.46 459.5,228.5C 425.167,323.833 390.833,419.167 356.5,514.5C 351.833,514.5 347.167,514.5 342.5,514.5C 378.167,416.5 413.833,318.5 449.5,220.5 Z"/></g>
<g><path style="opacity:0.872" fill="#a74347" d="M 181.5,225.5 C 176.992,237.014 172.659,248.681 168.5,260.5C 155.029,257.583 149.529,249.249 152,235.5C 153.527,233.779 154.527,231.779 155,229.5C 162.846,221.997 171.68,220.664 181.5,225.5 Z"/></g>
<g><path style="opacity:0.919" fill="#a74549" d="M 181.5,225.5 C 182.833,226.167 183.833,227.167 184.5,228.5C 180.5,239.167 176.5,249.833 172.5,260.5C 171.167,260.5 169.833,260.5 168.5,260.5C 172.659,248.681 176.992,237.014 181.5,225.5 Z"/></g>
<g><path style="opacity:0.867" fill="#a8444b" d="M 184.5,228.5 C 187.375,230.249 188.708,232.915 188.5,236.5C 185.638,243.752 182.971,251.085 180.5,258.5C 178.118,260.046 175.451,260.713 172.5,260.5C 176.5,249.833 180.5,239.167 184.5,228.5 Z"/></g>
<g><path style="opacity:0.989" fill="#b25992" d="M 459.5,228.5 C 460.473,228.987 461.473,229.487 462.5,230C 467.083,235.408 471.75,240.574 476.5,245.5C 444.701,334.231 412.701,422.898 380.5,511.5C 372.615,513.21 364.615,514.21 356.5,514.5C 390.833,419.167 425.167,323.833 459.5,228.5 Z"/></g>
<g><path style="opacity:0.886" fill="#a94755" d="M 242.5,230.5 C 225.734,278.138 208.401,325.472 190.5,372.5C 183.928,316.2 201.261,268.867 242.5,230.5 Z"/></g>
<g><path style="opacity:0.729" fill="#a6403c" d="M 98.5,232.5 C 102.182,232.335 105.848,232.501 109.5,233C 110.416,233.374 111.25,233.874 112,234.5C 114.587,248.037 109.587,252.037 97,246.5C 94.7117,241.479 95.2117,236.812 98.5,232.5 Z"/></g>
<g><path style="opacity:0.732" fill="#b45c9f" d="M 526.5,234.5 C 524.702,240.562 522.702,246.562 520.5,252.5C 518.133,251.921 516.3,250.588 515,248.5C 512.09,237.605 515.923,232.939 526.5,234.5 Z"/></g>
<g><path style="opacity:0.787" fill="#b45ea1" d="M 526.5,234.5 C 529.107,235.316 531.107,236.983 532.5,239.5C 530.852,243.429 529.185,247.429 527.5,251.5C 525.283,252.369 522.95,252.702 520.5,252.5C 522.702,246.562 524.702,240.562 526.5,234.5 Z"/></g>
<g><path style="opacity:0.836" fill="#a74242" d="M 145.5,248.5 C 144.171,252.822 142.837,257.155 141.5,261.5C 140.229,263.934 138.229,265.434 135.5,266C 120.014,266.169 114.181,258.669 118,243.5C 126.4,234.814 135.067,234.481 144,242.5C 145.128,244.345 145.628,246.345 145.5,248.5 Z"/></g>
<g><path style="opacity:0.522" fill="#a9444c" d="M 188.5,236.5 C 189.117,236.611 189.617,236.944 190,237.5C 190.591,246.236 187.424,253.236 180.5,258.5C 182.971,251.085 185.638,243.752 188.5,236.5 Z"/></g>
<g><path style="opacity:0.696" fill="#b55fa7" d="M 559.5,236.5 C 556.638,243.752 553.971,251.085 551.5,258.5C 550.542,258.047 549.708,257.381 549,256.5C 547.168,249.358 548.668,243.192 553.5,238C 555.436,237.187 557.436,236.687 559.5,236.5 Z"/></g>
<g><path style="opacity:0.894" fill="#b460a8" d="M 559.5,236.5 C 559.833,236.5 560.167,236.5 560.5,236.5C 557.632,244.438 554.965,252.438 552.5,260.5C 551.662,260.158 551.328,259.492 551.5,258.5C 553.971,251.085 556.638,243.752 559.5,236.5 Z"/></g>
<g><path style="opacity:0.853" fill="#b660aa" d="M 560.5,236.5 C 573.809,235.987 578.975,242.32 576,255.5C 571.841,262.67 565.674,265.17 557.5,263C 555.509,262.626 553.842,261.793 552.5,260.5C 554.965,252.438 557.632,244.438 560.5,236.5 Z"/></g>
<g><path style="opacity:0.257" fill="#b45ea2" d="M 532.5,239.5 C 533.701,244.915 532.034,248.915 527.5,251.5C 529.185,247.429 530.852,243.429 532.5,239.5 Z"/></g>
<g><path style="opacity:0.986" fill="#b35b98" d="M 476.5,245.5 C 484.314,253.783 490.647,263.116 495.5,273.5C 467.326,350.015 439.326,426.682 411.5,503.5C 401.607,507.557 391.274,510.224 380.5,511.5C 412.701,422.898 444.701,334.231 476.5,245.5 Z"/></g>
<g><path style="opacity:0.284" fill="#a74345" d="M 145.5,248.5 C 146.139,249.097 146.472,249.93 146.5,251C 146,253.5 145.5,256 145,258.5C 144.578,260.426 143.411,261.426 141.5,261.5C 142.837,257.155 144.171,252.822 145.5,248.5 Z"/></g>
<g><path style="opacity:0.703" fill="#b762b2" d="M 590.5,256.5 C 600.557,256.052 604.723,260.718 603,270.5C 599.702,275.22 595.202,276.72 589.5,275C 582.621,268.35 582.955,262.183 590.5,256.5 Z"/></g>
<g><path style="opacity:0.8" fill="#b55ea6" d="M 548.5,265.5 C 546.826,270.844 545.159,276.177 543.5,281.5C 538.809,284.169 534.142,284.003 529.5,281C 522.616,273.386 522.949,266.052 530.5,259C 537.179,256.227 543.013,257.394 548,262.5C 548.483,263.448 548.649,264.448 548.5,265.5 Z"/></g>
<g><path style="opacity:0.32" fill="#b560a9" d="M 548.5,265.5 C 550.057,270.255 549.557,274.921 547,279.5C 545.887,280.305 544.721,280.972 543.5,281.5C 545.159,276.177 546.826,270.844 548.5,265.5 Z"/></g>
<g><path style="opacity:0.94" fill="#a74347" d="M 162.5,276.5 C 156.966,291.77 151.632,307.103 146.5,322.5C 143.15,322.665 139.817,322.498 136.5,322C 130.792,319.671 126.126,316.171 122.5,311.5C 127.871,298.397 132.871,285.064 137.5,271.5C 146.762,269.073 155.095,270.739 162.5,276.5 Z"/></g>
<g><path style="opacity:0.771" fill="#a74243" d="M 137.5,271.5 C 132.871,285.064 127.871,298.397 122.5,311.5C 114.957,295.373 118.457,282.373 133,272.5C 134.44,271.852 135.94,271.519 137.5,271.5 Z"/></g>
<g><path style="opacity:0.665" fill="#b660ac" d="M 556.5,272.5 C 566.571,272.538 569.238,277.038 564.5,286C 555.031,289.183 551.197,286.016 553,276.5C 554.388,275.264 555.554,273.931 556.5,272.5 Z"/></g>
<g><path style="opacity:0.98" fill="#b45c9e" d="M 495.5,273.5 C 499.579,280.029 502.912,287.029 505.5,294.5C 480.929,360.207 456.929,426.207 433.5,492.5C 426.394,496.686 419.061,500.353 411.5,503.5C 439.326,426.682 467.326,350.015 495.5,273.5 Z"/></g>
<g><path style="opacity:0.938" fill="#a74549" d="M 162.5,276.5 C 163.974,277.436 164.974,278.77 165.5,280.5C 160.104,294.355 155.104,308.355 150.5,322.5C 149.167,322.5 147.833,322.5 146.5,322.5C 151.632,307.103 156.966,291.77 162.5,276.5 Z"/></g>
<g><path style="opacity:0.897" fill="#a8444b" d="M 165.5,280.5 C 168.058,282.434 169.391,285.101 169.5,288.5C 165.638,298.753 161.971,309.086 158.5,319.5C 156.176,321.277 153.509,322.277 150.5,322.5C 155.104,308.355 160.104,294.355 165.5,280.5 Z"/></g>
<g><path style="opacity:0.71" fill="#a9454c" d="M 169.5,288.5 C 173.315,301.612 169.648,311.945 158.5,319.5C 161.971,309.086 165.638,298.753 169.5,288.5 Z"/></g>
<g><path style="opacity:0.785" fill="#b560ab" d="M 542.5,289.5 C 546.182,289.335 549.848,289.501 553.5,290C 555.99,290.495 557.49,291.995 558,294.5C 561.103,305.857 556.936,311.357 545.5,311C 538.372,308.242 535.872,303.076 538,295.5C 538.979,293.032 540.479,291.032 542.5,289.5 Z"/></g>
<g><path style="opacity:0.978" fill="#b45ea1" d="M 505.5,294.5 C 506.511,297.94 507.511,301.274 508.5,304.5C 486.104,365.354 464.104,426.354 442.5,487.5C 439.688,489.408 436.688,491.075 433.5,492.5C 456.929,426.207 480.929,360.207 505.5,294.5 Z"/></g>
<g><path style="opacity:0.834" fill="#a74140" d="M 87.5,312.5 C 89.6772,307.987 91.6772,303.32 93.5,298.5C 93.9528,297.542 94.6195,296.708 95.5,296C 110.84,294.006 117.34,300.506 115,315.5C 111.016,323.042 104.849,325.542 96.5,323C 91.5594,321.189 88.5594,317.689 87.5,312.5 Z"/></g>
<g><path style="opacity:0.399" fill="#a6413d" d="M 93.5,298.5 C 91.6772,303.32 89.6772,307.987 87.5,312.5C 87.0349,308.208 87.8682,304.208 90,300.5C 90.8159,299.177 91.9826,298.511 93.5,298.5 Z"/></g>
<g><path style="opacity:0.954" fill="#b55ea5" d="M 508.5,304.5 C 514.26,323.013 516.26,342.013 514.5,361.5C 503.462,390.271 492.796,419.271 482.5,448.5C 480.643,451.392 478.81,454.392 477,457.5C 470.833,463.667 464.667,469.833 458.5,476C 453.311,480.02 447.978,483.853 442.5,487.5C 464.104,426.354 486.104,365.354 508.5,304.5 Z"/></g>
<g><path style="opacity:0.803" fill="#b660ad" d="M 557.5,317.5 C 553.971,326.753 550.638,336.086 547.5,345.5C 538.024,338.125 537.024,329.625 544.5,320C 548.546,317.826 552.879,316.993 557.5,317.5 Z"/></g>
<g><path style="opacity:0.842" fill="#b661b0" d="M 557.5,317.5 C 565.075,319.254 568.741,324.088 568.5,332C 569.083,339.065 566.083,343.732 559.5,346C 555.413,346.762 551.413,346.596 547.5,345.5C 550.638,336.086 553.971,326.753 557.5,317.5 Z"/></g>
<g><path style="opacity:0.663" fill="#a74345" d="M 120.5,323.5 C 128.179,324.018 131.012,328.018 129,335.5C 124.945,339.721 120.779,340.054 116.5,336.5C 114.222,330.877 115.555,326.544 120.5,323.5 Z"/></g>
<g><path style="opacity:0.789" fill="#a84449" d="M 146.5,332.5 C 143.638,339.752 140.971,347.085 138.5,354.5C 136.046,352.316 135.046,349.483 135.5,346C 135.159,338.184 138.825,333.684 146.5,332.5 Z"/></g>
<g><path style="opacity:0.875" fill="#a8444b" d="M 146.5,332.5 C 148.833,332.5 151.167,332.5 153.5,332.5C 150.103,341.024 147.103,349.69 144.5,358.5C 142.147,357.66 140.147,356.326 138.5,354.5C 140.971,347.085 143.638,339.752 146.5,332.5 Z"/></g>
<g><path style="opacity:0.786" fill="#a9454d" d="M 153.5,332.5 C 155.175,334.002 157.008,335.335 159,336.5C 159.716,339.72 160.883,342.72 162.5,345.5C 160.943,348.55 159.609,351.717 158.5,355C 154.389,358.694 149.723,359.861 144.5,358.5C 147.103,349.69 150.103,341.024 153.5,332.5 Z"/></g>
<g><path style="opacity:0.658" fill="#b865bd" d="M 621.5,342.5 C 631.361,341.575 634.694,345.742 631.5,355C 618.2,358.512 614.867,354.346 621.5,342.5 Z"/></g>
<g><path style="opacity:0.724" fill="#a74243" d="M 110.5,346.5 C 106.971,355.753 103.638,365.086 100.5,374.5C 98.1327,371.32 97.1327,367.653 97.5,363.5C 97.5069,360.408 98.0069,357.408 99,354.5C 101.88,350.451 105.714,347.785 110.5,346.5 Z"/></g>
<g><path style="opacity:0.873" fill="#a74346" d="M 110.5,346.5 C 125.035,345.7 131.701,352.367 130.5,366.5C 128.935,368.509 127.935,370.843 127.5,373.5C 124.413,378.295 119.913,380.629 114,380.5C 108.419,380.49 103.919,378.49 100.5,374.5C 103.638,365.086 106.971,355.753 110.5,346.5 Z"/></g>
<g><path style="opacity:0.671" fill="#b661b0" d="M 545.5,358.5 C 551.869,357.513 555.536,360.18 556.5,366.5C 554.714,373.543 550.381,375.71 543.5,373C 539.01,367.262 539.677,362.428 545.5,358.5 Z"/></g>
<g><path style="opacity:0.917" fill="#b460a8" d="M 514.5,361.5 C 514.5,362.5 514.5,363.5 514.5,364.5C 504.326,391.682 494.326,419.015 484.5,446.5C 484.167,447.5 483.5,448.167 482.5,448.5C 492.796,419.271 503.462,390.271 514.5,361.5 Z"/></g>
<g><path style="opacity:0.854" fill="#a8464e" d="M 164.5,372.5 C 161.833,379.5 159.167,386.5 156.5,393.5C 148.254,395.885 142.087,393.218 138,385.5C 135.61,373.562 140.277,366.562 152,364.5C 157.908,364.595 162.075,367.261 164.5,372.5 Z"/></g>
<g><path style="opacity:0.672" fill="#b65fa9" d="M 514.5,364.5 C 512.298,394.864 502.298,422.197 484.5,446.5C 494.326,419.015 504.326,391.682 514.5,364.5 Z"/></g>
<g><path style="opacity:0.111" fill="#a74549" d="M 130.5,366.5 C 130.834,369.491 129.834,371.824 127.5,373.5C 127.935,370.843 128.935,368.509 130.5,366.5 Z"/></g>
<g><path style="opacity:0.602" fill="#b763b6" d="M 574.5,368.5 C 582.682,366.48 585.848,369.48 584,377.5C 578.216,381.139 574.383,379.806 572.5,373.5C 572.986,371.696 573.653,370.029 574.5,368.5 Z"/></g>
<g><path style="opacity:0.626" fill="#a94652" d="M 164.5,372.5 C 168.533,379.112 167.866,385.446 162.5,391.5C 160.677,392.747 158.677,393.414 156.5,393.5C 159.167,386.5 161.833,379.5 164.5,372.5 Z"/></g>
<g><path style="opacity:0.767" fill="#a74240" d="M 69.5,375.5 C 83.037,373.872 89.037,379.705 87.5,393C 79.5726,403.945 71.5726,404.112 63.5,393.5C 62.343,390.216 62.1764,386.882 63,383.5C 64.501,380.091 66.6677,377.424 69.5,375.5 Z"/></g>
<g><path style="opacity:0.771" fill="#a84449" d="M 127.5,385.5 C 125.125,390.953 123.125,396.619 121.5,402.5C 120.178,402.67 119.011,402.337 118,401.5C 114.089,393.033 116.422,387.367 125,384.5C 126.07,384.528 126.903,384.861 127.5,385.5 Z"/></g>
<g><path style="opacity:0.874" fill="#b762b3" d="M 566.5,386.5 C 561.303,400.758 556.303,415.091 551.5,429.5C 534.785,422.007 530.618,410.007 539,393.5C 546.601,385.148 555.768,382.814 566.5,386.5 Z"/></g>
<g><path style="opacity:0.864" fill="#a8444b" d="M 127.5,385.5 C 129.565,385.953 131.232,386.953 132.5,388.5C 131.428,393.715 129.762,398.715 127.5,403.5C 125.265,403.795 123.265,403.461 121.5,402.5C 123.125,396.619 125.125,390.953 127.5,385.5 Z"/></g>
<g><path style="opacity:0.857" fill="#b763b7" d="M 566.5,386.5 C 578.221,392.71 582.388,402.377 579,415.5C 576.104,422.062 571.271,426.562 564.5,429C 560.179,429.499 555.846,429.666 551.5,429.5C 556.303,415.091 561.303,400.758 566.5,386.5 Z"/></g>
<g><path style="opacity:0.491" fill="#a9444c" d="M 132.5,388.5 C 136.657,393.776 135.99,398.61 130.5,403C 129.552,403.483 128.552,403.649 127.5,403.5C 129.762,398.715 131.428,393.715 132.5,388.5 Z"/></g>
<g><path style="opacity:0.587" fill="#a84346" d="M 97.5,391.5 C 100.572,391.183 103.572,391.516 106.5,392.5C 109.042,400.122 106.375,403.289 98.5,402C 94.9351,398.784 94.6017,395.284 97.5,391.5 Z"/></g>
<g><path style="opacity:0.567" fill="#b968c5" d="M 660.5,393.5 C 666.867,393.872 669.034,397.206 667,403.5C 663.798,407.386 660.465,407.386 657,403.5C 655.581,399.082 656.748,395.749 660.5,393.5 Z"/></g>
<g><path style="opacity:0.636" fill="#b865ba" d="M 588.5,417.5 C 586.832,422.172 585.165,426.838 583.5,431.5C 581.983,431.489 580.816,430.823 580,429.5C 577.727,421.682 580.56,417.682 588.5,417.5 Z"/></g>
<g><path style="opacity:0.692" fill="#b865bc" d="M 588.5,417.5 C 592.956,420.214 594.456,424.214 593,429.5C 590.096,431.227 586.93,431.893 583.5,431.5C 585.165,426.838 586.832,422.172 588.5,417.5 Z"/></g>
<g><path style="opacity:0.571" fill="#a94650" d="M 141.5,434.5 C 139.5,440.5 137.5,446.5 135.5,452.5C 132.869,449.613 132.203,446.279 133.5,442.5C 134.858,438.392 137.524,435.726 141.5,434.5 Z"/></g>
<g><path style="opacity:0.794" fill="#a94753" d="M 141.5,434.5 C 152.617,434.807 156.784,440.474 154,451.5C 148.953,457.468 143.12,458.468 136.5,454.5C 135.702,454.043 135.369,453.376 135.5,452.5C 137.5,446.5 139.5,440.5 141.5,434.5 Z"/></g>
<g><path style="opacity:0.855" fill="#b662b2" d="M 545.5,444.5 C 542.695,452.914 539.695,461.248 536.5,469.5C 535.121,470.609 533.455,471.276 531.5,471.5C 516.375,468.93 511.208,460.264 516,445.5C 523.135,435.915 531.968,434.082 542.5,440C 543.386,441.615 544.386,443.115 545.5,444.5 Z"/></g>
<g><path style="opacity:0.821" fill="#b864b9" d="M 578.5,444.5 C 576.893,450.323 574.893,455.989 572.5,461.5C 563.812,464.768 557.645,462.101 554,453.5C 554.626,439.088 561.793,434.588 575.5,440C 576.399,441.652 577.399,443.152 578.5,444.5 Z"/></g>
<g><path style="opacity:0.849" fill="#aa495a" d="M 189.5,446.5 C 186.695,454.914 183.695,463.248 180.5,471.5C 165.919,470.363 160.752,462.697 165,448.5C 168.511,444.161 173.011,441.495 178.5,440.5C 181.247,442.222 184.247,443.389 187.5,444C 188.381,444.708 189.047,445.542 189.5,446.5 Z"/></g>
<g><path style="opacity:0.753" fill="#b866be" d="M 590.5,440.5 C 604.422,439.173 608.755,445.006 603.5,458C 590.302,462.63 584.969,458.13 587.5,444.5C 589.288,443.717 590.288,442.384 590.5,440.5 Z"/></g>
<g><path style="opacity:0.861" fill="#b663b6" d="M 545.5,444.5 C 546.167,444.5 546.5,444.833 546.5,445.5C 543.632,453.438 540.965,461.438 538.5,469.5C 537.833,469.5 537.167,469.5 536.5,469.5C 539.695,461.248 542.695,452.914 545.5,444.5 Z"/></g>
<g><path style="opacity:0.396" fill="#b765bc" d="M 578.5,444.5 C 579.968,449.233 579.468,453.9 577,458.5C 575.871,460.141 574.371,461.141 572.5,461.5C 574.893,455.989 576.893,450.323 578.5,444.5 Z"/></g>
<g><path style="opacity:0.6" fill="#b763b6" d="M 546.5,445.5 C 549.772,453.206 548.772,460.373 543.5,467C 541.807,467.847 540.14,468.68 538.5,469.5C 540.965,461.438 543.632,453.438 546.5,445.5 Z"/></g>
<g><path style="opacity:0.829" fill="#ab495e" d="M 189.5,446.5 C 191.25,447.659 192.25,449.326 192.5,451.5C 189.796,457.267 187.462,463.267 185.5,469.5C 183.678,469.831 182.011,470.498 180.5,471.5C 183.695,463.248 186.695,454.914 189.5,446.5 Z"/></g>
<g><path style="opacity:0.531" fill="#ab4b5f" d="M 192.5,451.5 C 194.287,459.299 191.954,465.299 185.5,469.5C 187.462,463.267 189.796,457.267 192.5,451.5 Z"/></g>
<g><path style="opacity:0.727" fill="#b865be" d="M 580.5,464.5 C 593.368,464.87 596.701,470.703 590.5,482C 578.017,485.832 573.184,481.332 576,468.5C 577.667,467.267 579.167,465.933 580.5,464.5 Z"/></g>
<g><path style="opacity:0.825" fill="#b864b9" d="M 568.5,474.5 C 565.99,480.015 563.656,485.681 561.5,491.5C 553.293,494.149 547.46,491.483 544,483.5C 543.829,468.021 550.996,463.187 565.5,469C 567.16,470.488 568.16,472.321 568.5,474.5 Z"/></g>
<g><path style="opacity:0.849" fill="#ab4b61" d="M 203.5,472.5 C 198.837,486.155 194.17,499.822 189.5,513.5C 179.125,506.882 175.959,497.548 180,485.5C 185.077,475.881 192.91,471.548 203.5,472.5 Z"/></g>
<g><path style="opacity:0.897" fill="#ac4c66" d="M 203.5,472.5 C 217.641,474.056 224.307,482.056 223.5,496.5C 221.399,499.797 220.065,503.463 219.5,507.5C 215.946,512.629 210.946,515.795 204.5,517C 199.023,517.578 194.023,516.411 189.5,513.5C 194.17,499.822 198.837,486.155 203.5,472.5 Z"/></g>
<g><path style="opacity:0.724" fill="#aa495b" d="M 162.5,473.5 C 170.295,473.015 174.961,476.515 176.5,484C 173.93,493.27 168.263,495.937 159.5,492C 153.964,484.722 154.964,478.555 162.5,473.5 Z"/></g>
<g><path style="opacity:0.561" fill="#b765bc" d="M 568.5,474.5 C 571.064,480.288 570.064,485.622 565.5,490.5C 564.264,491.246 562.93,491.579 561.5,491.5C 563.656,485.681 565.99,480.015 568.5,474.5 Z"/></g>
<g><path style="opacity:0.686" fill="#b968c5" d="M 625.5,485.5 C 636.994,483.993 640.328,488.493 635.5,499C 625.32,502.66 621.154,499.16 623,488.5C 623.698,487.309 624.531,486.309 625.5,485.5 Z"/></g>
<g><path style="opacity:0.66" fill="#b866bf" d="M 579.5,489.5 C 589.491,487.654 592.824,491.488 589.5,501C 585.197,504.422 581.03,504.256 577,500.5C 576.333,497.5 576.333,494.5 577,491.5C 577.995,490.934 578.828,490.267 579.5,489.5 Z"/></g>
<g><path style="opacity:0.165" fill="#ac4e6a" d="M 223.5,496.5 C 223.109,500.54 221.776,504.207 219.5,507.5C 220.065,503.463 221.399,499.797 223.5,496.5 Z"/></g>
<g><path style="opacity:0.633" fill="#ab495c" d="M 170.5,499.5 C 168.677,504.32 166.677,508.987 164.5,513.5C 159.225,509.117 159.225,504.617 164.5,500C 166.473,499.505 168.473,499.338 170.5,499.5 Z"/></g>
<g><path style="opacity:0.818" fill="#ab495e" d="M 170.5,499.5 C 171.791,499.263 172.791,499.596 173.5,500.5C 172.365,505.236 171.032,509.903 169.5,514.5C 167.585,514.784 165.919,514.451 164.5,513.5C 166.677,508.987 168.677,504.32 170.5,499.5 Z"/></g>
<g><path style="opacity:0.534" fill="#ab4a5f" d="M 173.5,500.5 C 178.826,504.816 178.826,509.316 173.5,514C 172.207,514.49 170.873,514.657 169.5,514.5C 171.032,509.903 172.365,505.236 173.5,500.5 Z"/></g>
<g><path style="opacity:0.914" fill="#b660ab" d="M 490.5,501.5 C 484.305,518.086 478.305,534.752 472.5,551.5C 460.86,547.845 454.86,539.845 454.5,527.5C 457.068,521.342 459.402,515.009 461.5,508.5C 462.364,507.312 463.364,506.145 464.5,505C 467.398,504.096 470.064,502.762 472.5,501C 478.551,500.254 484.551,500.421 490.5,501.5 Z"/></g>
<g><path style="opacity:0.898" fill="#b662b0" d="M 490.5,501.5 C 507.41,511.315 511.243,524.982 502,542.5C 494.127,551.762 484.294,554.762 472.5,551.5C 478.305,534.752 484.305,518.086 490.5,501.5 Z"/></g>
<g><path style="opacity:0.453" fill="#b55fa8" d="M 461.5,508.5 C 459.402,515.009 457.068,521.342 454.5,527.5C 453.807,519.913 456.141,513.58 461.5,508.5 Z"/></g>
<g><path style="opacity:0.902" fill="#ae5073" d="M 258.5,523.5 C 256.829,528.845 255.163,534.178 253.5,539.5C 253.423,540.75 252.756,541.583 251.5,542C 245.5,544 239.5,544 233.5,542C 232.635,540.641 231.635,539.474 230.5,538.5C 233.638,529.086 236.971,519.753 240.5,510.5C 246.993,509.152 252.327,511.152 256.5,516.5C 257.946,518.618 258.613,520.951 258.5,523.5 Z"/></g>
<g><path style="opacity:0.733" fill="#ad4f6f" d="M 240.5,510.5 C 236.971,519.753 233.638,529.086 230.5,538.5C 225.509,533.311 224.175,527.145 226.5,520C 228.084,518.165 229.417,516.165 230.5,514C 233.327,511.421 236.66,510.255 240.5,510.5 Z"/></g>
<g><path style="opacity:0.764" fill="#b865bd" d="M 558.5,513.5 C 568.135,511.434 573.468,515.101 574.5,524.5C 574.308,527.649 573.308,530.482 571.5,533C 558.133,537.942 551.966,533.442 553,519.5C 554.626,517.195 556.46,515.195 558.5,513.5 Z"/></g>
<g><path style="opacity:0.675" fill="#a94650" d="M 110.5,518.5 C 109.032,524.237 107.365,529.903 105.5,535.5C 104.279,534.972 103.113,534.305 102,533.5C 100.686,530.911 100.019,528.244 100,525.5C 101.292,523.751 102.458,521.918 103.5,520C 105.74,519.023 108.073,518.523 110.5,518.5 Z"/></g>
<g><path style="opacity:0.719" fill="#a94752" d="M 110.5,518.5 C 113.233,518.948 115.399,520.281 117,522.5C 119.423,532.898 115.589,537.231 105.5,535.5C 107.365,529.903 109.032,524.237 110.5,518.5 Z"/></g>
<g><path style="opacity:0.518" fill="#ad4d69" d="M 213.5,521.5 C 212.559,525.325 211.226,528.991 209.5,532.5C 208.25,532.423 207.417,531.756 207,530.5C 206.333,528.5 206.333,526.5 207,524.5C 208.884,523.023 210.884,521.69 213,520.5C 213.399,520.728 213.565,521.062 213.5,521.5 Z"/></g>
<g><path style="opacity:0.609" fill="#ad4d6b" d="M 213.5,521.5 C 219.276,524.251 219.943,528.085 215.5,533C 213.402,533.678 211.402,533.511 209.5,532.5C 211.226,528.991 212.559,525.325 213.5,521.5 Z"/></g>
<g><path style="opacity:0.904" fill="#b45ea1" d="M 427.5,525.5 C 423.786,537.262 419.786,548.928 415.5,560.5C 412.438,559.732 410.772,557.732 410.5,554.5C 413.833,545.5 417.167,536.5 420.5,527.5C 422.929,527.116 425.263,526.449 427.5,525.5 Z"/></g>
<g><path style="opacity:0.874" fill="#b55ea5" d="M 427.5,525.5 C 443.74,529.29 449.24,539.29 444,555.5C 437.867,564.056 429.7,566.89 419.5,564C 417.907,563.051 416.574,561.885 415.5,560.5C 419.786,548.928 423.786,537.262 427.5,525.5 Z"/></g>
<g><path style="opacity:0.193" fill="#ae5177" d="M 258.5,523.5 C 259.675,528.156 259.175,532.822 257,537.5C 255.887,538.305 254.721,538.972 253.5,539.5C 255.163,534.178 256.829,528.845 258.5,523.5 Z"/></g>
<g><path style="opacity:0.686" fill="#b45ca0" d="M 420.5,527.5 C 417.167,536.5 413.833,545.5 410.5,554.5C 409.21,553.942 408.377,552.942 408,551.5C 406.412,544.235 407.912,537.735 412.5,532C 414.736,529.716 417.402,528.216 420.5,527.5 Z"/></g>
<g><path style="opacity:0.925" fill="#af5480" d="M 304.5,532.5 C 298.225,548.72 292.225,565.054 286.5,581.5C 278.075,579.748 272.408,574.748 269.5,566.5C 268.534,564.604 268.201,562.604 268.5,560.5C 270.833,553.167 273.167,545.833 275.5,538.5C 278.231,534.973 281.897,532.806 286.5,532C 292.537,531.303 298.537,531.47 304.5,532.5 Z"/></g>
<g><path style="opacity:0.917" fill="#b05586" d="M 304.5,532.5 C 313.366,536.219 318.366,542.886 319.5,552.5C 316.305,560.752 313.305,569.086 310.5,577.5C 310.047,578.458 309.381,579.292 308.5,580C 301.886,583.231 294.886,584.231 287.5,583C 286.944,582.617 286.611,582.117 286.5,581.5C 292.225,565.054 298.225,548.72 304.5,532.5 Z"/></g>
<g><path style="opacity:0.683" fill="#ab4b62" d="M 180.5,537.5 C 178.55,542.402 176.883,547.402 175.5,552.5C 169.902,551.519 167.736,548.186 169,542.5C 169.513,540.479 170.68,538.979 172.5,538C 175.146,537.503 177.813,537.336 180.5,537.5 Z"/></g>
<g><path style="opacity:0.651" fill="#ac4b64" d="M 180.5,537.5 C 185.346,541.937 185.68,546.77 181.5,552C 179.527,552.495 177.527,552.662 175.5,552.5C 176.883,547.402 178.55,542.402 180.5,537.5 Z"/></g>
<g><path style="opacity:0.321" fill="#ae537b" d="M 275.5,538.5 C 273.167,545.833 270.833,553.167 268.5,560.5C 267.336,557.16 267.336,553.66 268.5,550C 270.379,547.037 271.879,543.871 273,540.5C 273.708,539.619 274.542,538.953 275.5,538.5 Z"/></g>
<g><path style="opacity:0.845" fill="#b35b99" d="M 396.5,545.5 C 393.595,552.327 390.928,559.327 388.5,566.5C 370.798,568.532 364.965,560.865 371,543.5C 376.216,538.752 382.383,537.252 389.5,539C 392.331,540.666 394.664,542.832 396.5,545.5 Z"/></g>
<g><path style="opacity:0.643" fill="#ad4e6e" d="M 214.5,541.5 C 217.881,541.46 221.214,541.793 224.5,542.5C 227.543,551.947 224.21,556.114 214.5,555C 209.234,550.455 209.234,545.955 214.5,541.5 Z"/></g>
<g><path style="opacity:0.738" fill="#b2578e" d="M 345.5,543.5 C 342.437,551.023 339.77,558.69 337.5,566.5C 335.83,566.249 334.33,565.582 333,564.5C 327.852,556.265 329.352,549.432 337.5,544C 340.146,543.503 342.813,543.336 345.5,543.5 Z"/></g>
<g><path style="opacity:0.786" fill="#b25991" d="M 345.5,543.5 C 355.176,549.022 356.843,556.522 350.5,566C 346.074,567.652 341.741,567.818 337.5,566.5C 339.77,558.69 342.437,551.023 345.5,543.5 Z"/></g>
<g><path style="opacity:0.586" fill="#b45c9d" d="M 396.5,545.5 C 399.443,552.615 398.443,559.115 393.5,565C 391.846,565.608 390.179,566.108 388.5,566.5C 390.928,559.327 393.595,552.327 396.5,545.5 Z"/></g>
<g><path style="opacity:0.534" fill="#b1578a" d="M 319.5,552.5 C 320.809,553.624 321.475,555.124 321.5,557C 320.557,563.835 318.057,570.002 314,575.5C 312.887,576.305 311.721,576.972 310.5,577.5C 313.305,569.086 316.305,560.752 319.5,552.5 Z"/></g>
<g><path style="opacity:0.827" fill="#ae5074" d="M 246.5,557.5 C 244.363,563.91 242.03,570.244 239.5,576.5C 229.544,575.675 226.044,570.341 229,560.5C 229.833,558.333 231.333,556.833 233.5,556C 238.129,554.978 242.462,555.478 246.5,557.5 Z"/></g>
<g><path style="opacity:0.827" fill="#b660ac" d="M 469.5,557.5 C 466.5,566.833 463.5,576.167 460.5,585.5C 449.228,583.357 444.895,576.69 447.5,565.5C 452.296,556.259 459.629,553.592 469.5,557.5 Z"/></g>
<g><path style="opacity:0.768" fill="#b661af" d="M 469.5,557.5 C 478.811,566.213 478.811,575.047 469.5,584C 466.568,584.953 463.568,585.453 460.5,585.5C 463.5,576.167 466.5,566.833 469.5,557.5 Z"/></g>
<g><path style="opacity:0.61" fill="#ae5177" d="M 246.5,557.5 C 250.485,563.092 250.485,568.758 246.5,574.5C 244.382,575.946 242.049,576.613 239.5,576.5C 242.03,570.244 244.363,563.91 246.5,557.5 Z"/></g>
<g><path style="opacity:0.595" fill="#b35a94" d="M 358.5,570.5 C 356.165,577.172 353.832,583.838 351.5,590.5C 350.152,585.594 350.318,580.594 352,575.5C 353.765,573.296 355.931,571.629 358.5,570.5 Z"/></g>
<g><path style="opacity:0.838" fill="#b35b98" d="M 358.5,570.5 C 373.303,568.636 379.636,574.969 377.5,589.5C 373.588,598.03 367.088,600.697 358,597.5C 356.165,595.916 354.165,594.583 352,593.5C 351.517,592.552 351.351,591.552 351.5,590.5C 353.832,583.838 356.165,577.172 358.5,570.5 Z"/></g>
<g><path style="opacity:0.752" fill="#b55fa7" d="M 437.5,571.5 C 434.97,577.756 432.637,584.09 430.5,590.5C 424.855,587.537 423.022,582.87 425,576.5C 427.811,571.583 431.978,569.917 437.5,571.5 Z"/></g>
<g><path style="opacity:0.763" fill="#b2578e" d="M 334.5,572.5 C 331.969,579.426 329.636,586.426 327.5,593.5C 324.888,592.723 323.055,591.056 322,588.5C 318.953,576.789 323.12,571.456 334.5,572.5 Z"/></g>
<g><path style="opacity:0.552" fill="#b45c9e" d="M 388.5,571.5 C 397.818,571.655 399.818,575.488 394.5,583C 387.333,584.5 384.5,581.667 386,574.5C 387.045,573.627 387.878,572.627 388.5,571.5 Z"/></g>
<g><path style="opacity:0.697" fill="#b560a9" d="M 437.5,571.5 C 443,574.17 445,578.503 443.5,584.5C 440.871,589.899 436.537,591.899 430.5,590.5C 432.637,584.09 434.97,577.756 437.5,571.5 Z"/></g>
<g><path style="opacity:0.762" fill="#b25890" d="M 334.5,572.5 C 338.192,572.938 340.692,574.938 342,578.5C 343.642,590.023 338.809,595.023 327.5,593.5C 329.636,586.426 331.969,579.426 334.5,572.5 Z"/></g>
<g><path style="opacity:0.839" fill="#af537f" d="M 252.5,604.5 C 254.77,596.69 257.437,589.023 260.5,581.5C 268.805,579.679 274.972,582.679 279,590.5C 280.094,596.867 278.594,602.533 274.5,607.5C 271.074,608.711 267.741,610.044 264.5,611.5C 261.259,610.044 257.926,608.711 254.5,607.5C 253.575,606.643 252.908,605.643 252.5,604.5 Z"/></g>
<g><path style="opacity:0.736" fill="#ae5075" d="M 237.5,583.5 C 234.971,589.086 232.638,594.753 230.5,600.5C 225.307,600.18 222.974,597.346 223.5,592C 223.499,585.667 226.665,582.167 233,581.5C 235.008,581.307 236.508,581.974 237.5,583.5 Z"/></g>
<g><path style="opacity:0.633" fill="#af527b" d="M 260.5,581.5 C 257.437,589.023 254.77,596.69 252.5,604.5C 248.068,597.318 248.735,590.485 254.5,584C 256.217,582.441 258.217,581.608 260.5,581.5 Z"/></g>
<g><path style="opacity:0.679" fill="#ae5177" d="M 237.5,583.5 C 239.564,584.058 241.23,585.225 242.5,587C 245.258,595.78 242.091,600.947 233,602.5C 231.624,602.316 230.791,601.649 230.5,600.5C 232.638,594.753 234.971,589.086 237.5,583.5 Z"/></g>
<g><path style="opacity:0.835" fill="#b15687" d="M 305.5,590.5 C 301.826,601.177 298.16,611.844 294.5,622.5C 287.49,620.19 284.156,615.19 284.5,607.5C 285.715,594.969 292.715,589.302 305.5,590.5 Z"/></g>
<g><path style="opacity:0.923" fill="#b1568a" d="M 305.5,590.5 C 308.49,591.661 311.157,593.328 313.5,595.5C 309.595,604.543 306.262,613.876 303.5,623.5C 300.287,623.81 297.287,623.477 294.5,622.5C 298.16,611.844 301.826,601.177 305.5,590.5 Z"/></g>
<g><path style="opacity:0.768" fill="#b1588d" d="M 313.5,595.5 C 320.568,604.591 319.902,613.258 311.5,621.5C 309.057,623.055 306.39,623.722 303.5,623.5C 306.262,613.876 309.595,604.543 313.5,595.5 Z"/></g>
<g><path style="opacity:0.64" fill="#b25992" d="M 331.5,602.5 C 337.238,601.898 340.572,604.398 341.5,610C 340.138,616.038 336.471,618.371 330.5,617C 326.788,614.442 325.622,610.942 327,606.5C 327.907,604.391 329.407,603.058 331.5,602.5 Z"/></g>
<g><path style="opacity:0.68" fill="#b662b1" d="M 460.5,608.5 C 470.659,607.158 474.826,611.491 473,621.5C 470.103,626.155 465.937,627.655 460.5,626C 453.901,620.123 453.901,614.289 460.5,608.5 Z"/></g>
<g><path style="opacity:0.612" fill="#b763b4" d="M 482.5,616.5 C 481.167,621.167 479.833,625.833 478.5,630.5C 473.679,626.367 473.346,621.867 477.5,617C 479.134,616.506 480.801,616.34 482.5,616.5 Z"/></g>
<g><path style="opacity:0.664" fill="#b763b6" d="M 482.5,616.5 C 484.582,616.472 486.416,617.139 488,618.5C 490.467,627.186 487.3,631.186 478.5,630.5C 479.833,625.833 481.167,621.167 482.5,616.5 Z"/></g>
<g><path style="opacity:0.761" fill="#b25991" d="M 312.5,634.5 C 313.636,630.426 314.969,626.426 316.5,622.5C 326.879,620.509 331.046,624.842 329,635.5C 327.336,639.084 324.503,640.751 320.5,640.5C 315.933,640.895 313.266,638.895 312.5,634.5 Z"/></g>
<g><path style="opacity:0.305" fill="#b2588e" d="M 316.5,622.5 C 314.969,626.426 313.636,630.426 312.5,634.5C 311.007,633.688 310.34,632.355 310.5,630.5C 311.43,628.064 312.597,625.731 314,623.5C 314.671,622.748 315.504,622.414 316.5,622.5 Z"/></g>
<g><path style="opacity:0.577" fill="#ab4b60" d="M 125.5,639.5 C 133.762,638.425 136.428,641.758 133.5,649.5C 125.158,652.889 121.658,650.223 123,641.5C 123.995,640.934 124.828,640.267 125.5,639.5 Z"/></g>
<g><path style="opacity:0.718" fill="#b05482" d="M 264.5,641.5 C 262.029,648.915 259.362,656.248 256.5,663.5C 254.926,663.063 253.759,662.063 253,660.5C 251.46,655.471 251.794,650.471 254,645.5C 257.027,642.926 260.527,641.593 264.5,641.5 Z"/></g>
<g><path style="opacity:0.815" fill="#b05585" d="M 264.5,641.5 C 271.467,642.467 275.467,646.467 276.5,653.5C 274.008,665.004 267.341,668.338 256.5,663.5C 259.362,656.248 262.029,648.915 264.5,641.5 Z"/></g>
<g><path style="opacity:0.581" fill="#b764b7" d="M 476.5,644.5 C 484.682,642.48 487.848,645.48 486,653.5C 480.216,657.139 476.383,655.806 474.5,649.5C 474.437,647.486 475.103,645.819 476.5,644.5 Z"/></g>
</svg>
